<mxfile host="app.diagrams.net" modified="2023-11-01T17:21:39.086Z" agent="Mozilla/5.0 (Windows NT 10.0; Win64; x64) AppleWebKit/537.36 (KHTML, like Gecko) Chrome/118.0.0.0 Safari/537.36" etag="P_-U3xKA1RzjaiNijbR3" version="22.0.8" type="github">
  <diagram name="Page-1" id="2YBvvXClWsGukQMizWep">
    <mxGraphModel dx="890" dy="396" grid="1" gridSize="10" guides="1" tooltips="1" connect="1" arrows="1" fold="1" page="1" pageScale="1" pageWidth="850" pageHeight="1100" math="0" shadow="0">
      <root>
        <mxCell id="0" />
        <mxCell id="1" parent="0" />
        <mxCell id="B1dsRPcmxnggRmvk-x9b-35" style="edgeStyle=orthogonalEdgeStyle;rounded=0;orthogonalLoop=1;jettySize=auto;html=1;entryX=0;entryY=0.5;entryDx=0;entryDy=0;" edge="1" parent="1" source="9uB-aW_XzF6aLIXHZRKK-2" target="B1dsRPcmxnggRmvk-x9b-13">
          <mxGeometry relative="1" as="geometry">
            <mxPoint x="226" y="143" as="targetPoint" />
          </mxGeometry>
        </mxCell>
        <mxCell id="B1dsRPcmxnggRmvk-x9b-45" value="Moto&lt;br&gt;registrada" style="edgeLabel;html=1;align=center;verticalAlign=middle;resizable=0;points=[];" vertex="1" connectable="0" parent="B1dsRPcmxnggRmvk-x9b-35">
          <mxGeometry x="-0.0851" y="2" relative="1" as="geometry">
            <mxPoint as="offset" />
          </mxGeometry>
        </mxCell>
        <mxCell id="9uB-aW_XzF6aLIXHZRKK-2" value="" style="ellipse;html=1;shape=startState;fillColor=#A8DADC;strokeColor=#457B9D;labelBackgroundColor=none;fontColor=#1D3557;" parent="1" vertex="1">
          <mxGeometry x="287" y="134" width="30" height="30" as="geometry" />
        </mxCell>
        <mxCell id="B1dsRPcmxnggRmvk-x9b-76" style="edgeStyle=orthogonalEdgeStyle;rounded=0;orthogonalLoop=1;jettySize=auto;html=1;entryX=0;entryY=0.5;entryDx=0;entryDy=0;" edge="1" parent="1" source="B1dsRPcmxnggRmvk-x9b-2" target="B1dsRPcmxnggRmvk-x9b-75">
          <mxGeometry relative="1" as="geometry" />
        </mxCell>
        <mxCell id="B1dsRPcmxnggRmvk-x9b-2" value="&lt;b&gt;3. Moto registrada&lt;br&gt;&lt;/b&gt;&lt;br&gt;Marca&lt;br&gt;Referencia&lt;br&gt;&lt;br&gt;do/ kms actual de moto" style="html=1;align=left;verticalAlign=middle;rounded=1;absoluteArcSize=1;arcSize=10;dashed=0;whiteSpace=wrap;labelBackgroundColor=none;fillColor=#A8DADC;strokeColor=#457B9D;fontColor=#1D3557;" vertex="1" parent="1">
          <mxGeometry x="403" y="550" width="112.5" height="125" as="geometry" />
        </mxCell>
        <mxCell id="B1dsRPcmxnggRmvk-x9b-69" style="edgeStyle=orthogonalEdgeStyle;rounded=0;orthogonalLoop=1;jettySize=auto;html=1;entryX=0;entryY=0.5;entryDx=0;entryDy=0;" edge="1" parent="1" source="B1dsRPcmxnggRmvk-x9b-4" target="B1dsRPcmxnggRmvk-x9b-68">
          <mxGeometry relative="1" as="geometry" />
        </mxCell>
        <mxCell id="B1dsRPcmxnggRmvk-x9b-4" value="&lt;b&gt;Mtto realizado&lt;br&gt;&lt;/b&gt;" style="html=1;align=left;verticalAlign=middle;rounded=1;absoluteArcSize=1;arcSize=10;dashed=0;whiteSpace=wrap;labelBackgroundColor=none;fillColor=#A8DADC;strokeColor=#457B9D;fontColor=#1D3557;" vertex="1" parent="1">
          <mxGeometry x="672" y="170" width="112.5" height="40" as="geometry" />
        </mxCell>
        <mxCell id="B1dsRPcmxnggRmvk-x9b-44" style="edgeStyle=orthogonalEdgeStyle;rounded=0;orthogonalLoop=1;jettySize=auto;html=1;entryX=0;entryY=0.5;entryDx=0;entryDy=0;" edge="1" parent="1" source="B1dsRPcmxnggRmvk-x9b-5" target="B1dsRPcmxnggRmvk-x9b-68">
          <mxGeometry relative="1" as="geometry">
            <mxPoint x="862" y="139" as="targetPoint" />
          </mxGeometry>
        </mxCell>
        <mxCell id="B1dsRPcmxnggRmvk-x9b-5" value="&lt;b&gt;Mtto cancelado&lt;br&gt;&lt;/b&gt;" style="html=1;align=left;verticalAlign=middle;rounded=1;absoluteArcSize=1;arcSize=10;dashed=0;whiteSpace=wrap;labelBackgroundColor=none;fillColor=#A8DADC;strokeColor=#457B9D;fontColor=#1D3557;" vertex="1" parent="1">
          <mxGeometry x="672" y="84" width="112.5" height="40" as="geometry" />
        </mxCell>
        <mxCell id="B1dsRPcmxnggRmvk-x9b-55" style="edgeStyle=orthogonalEdgeStyle;rounded=0;orthogonalLoop=1;jettySize=auto;html=1;entryX=0;entryY=0.5;entryDx=0;entryDy=0;" edge="1" parent="1" source="B1dsRPcmxnggRmvk-x9b-13" target="B1dsRPcmxnggRmvk-x9b-38">
          <mxGeometry relative="1" as="geometry" />
        </mxCell>
        <mxCell id="B1dsRPcmxnggRmvk-x9b-13" value="&lt;b&gt;Mtto programado&lt;br&gt;&lt;/b&gt;" style="html=1;align=left;verticalAlign=middle;rounded=1;absoluteArcSize=1;arcSize=10;dashed=0;whiteSpace=wrap;labelBackgroundColor=none;fillColor=#A8DADC;strokeColor=#457B9D;fontColor=#1D3557;" vertex="1" parent="1">
          <mxGeometry x="430" y="129" width="112.5" height="40" as="geometry" />
        </mxCell>
        <mxCell id="B1dsRPcmxnggRmvk-x9b-61" style="edgeStyle=orthogonalEdgeStyle;rounded=0;orthogonalLoop=1;jettySize=auto;html=1;entryX=0;entryY=0.5;entryDx=0;entryDy=0;" edge="1" parent="1" source="B1dsRPcmxnggRmvk-x9b-21" target="B1dsRPcmxnggRmvk-x9b-60">
          <mxGeometry relative="1" as="geometry" />
        </mxCell>
        <mxCell id="B1dsRPcmxnggRmvk-x9b-21" value="&lt;b&gt;Notificaci贸n programada&lt;br&gt;&lt;/b&gt;" style="html=1;align=left;verticalAlign=middle;rounded=1;absoluteArcSize=1;arcSize=10;dashed=0;whiteSpace=wrap;labelBackgroundColor=none;fillColor=#A8DADC;strokeColor=#457B9D;fontColor=#1D3557;" vertex="1" parent="1">
          <mxGeometry x="437" y="349" width="112.5" height="40" as="geometry" />
        </mxCell>
        <mxCell id="B1dsRPcmxnggRmvk-x9b-22" value="&lt;b&gt;Notificaci贸n pendiente&lt;br&gt;&lt;/b&gt;" style="html=1;align=left;verticalAlign=middle;rounded=1;absoluteArcSize=1;arcSize=10;dashed=0;whiteSpace=wrap;labelBackgroundColor=none;fillColor=#A8DADC;strokeColor=#457B9D;fontColor=#1D3557;" vertex="1" parent="1">
          <mxGeometry x="661" y="289" width="112.5" height="40" as="geometry" />
        </mxCell>
        <mxCell id="B1dsRPcmxnggRmvk-x9b-23" value="&lt;b&gt;Notificaci贸n enviada&lt;br&gt;&lt;/b&gt;" style="html=1;align=left;verticalAlign=middle;rounded=1;absoluteArcSize=1;arcSize=10;dashed=0;whiteSpace=wrap;labelBackgroundColor=none;fillColor=#A8DADC;strokeColor=#457B9D;fontColor=#1D3557;" vertex="1" parent="1">
          <mxGeometry x="659" y="349" width="112.5" height="40" as="geometry" />
        </mxCell>
        <mxCell id="B1dsRPcmxnggRmvk-x9b-24" value="&lt;b&gt;Notificaci贸n confirmada&lt;br&gt;&lt;/b&gt;" style="html=1;align=left;verticalAlign=middle;rounded=1;absoluteArcSize=1;arcSize=10;dashed=0;whiteSpace=wrap;labelBackgroundColor=none;fillColor=#A8DADC;strokeColor=#457B9D;fontColor=#1D3557;" vertex="1" parent="1">
          <mxGeometry x="659" y="407" width="112.5" height="40" as="geometry" />
        </mxCell>
        <mxCell id="B1dsRPcmxnggRmvk-x9b-86" style="edgeStyle=orthogonalEdgeStyle;rounded=0;orthogonalLoop=1;jettySize=auto;html=1;" edge="1" parent="1" source="B1dsRPcmxnggRmvk-x9b-25" target="B1dsRPcmxnggRmvk-x9b-27">
          <mxGeometry relative="1" as="geometry" />
        </mxCell>
        <mxCell id="B1dsRPcmxnggRmvk-x9b-93" value="Asignada" style="edgeLabel;html=1;align=center;verticalAlign=middle;resizable=0;points=[];" vertex="1" connectable="0" parent="B1dsRPcmxnggRmvk-x9b-86">
          <mxGeometry x="-0.1759" relative="1" as="geometry">
            <mxPoint as="offset" />
          </mxGeometry>
        </mxCell>
        <mxCell id="B1dsRPcmxnggRmvk-x9b-25" value="&lt;b&gt;Agenda de Motos&lt;br&gt;&lt;/b&gt;" style="html=1;align=left;verticalAlign=middle;rounded=1;absoluteArcSize=1;arcSize=10;dashed=0;whiteSpace=wrap;labelBackgroundColor=none;fillColor=#A8DADC;strokeColor=#457B9D;fontColor=#1D3557;" vertex="1" parent="1">
          <mxGeometry x="437.5" y="750" width="112.5" height="40" as="geometry" />
        </mxCell>
        <mxCell id="B1dsRPcmxnggRmvk-x9b-92" style="edgeStyle=orthogonalEdgeStyle;rounded=0;orthogonalLoop=1;jettySize=auto;html=1;entryX=0.5;entryY=1;entryDx=0;entryDy=0;" edge="1" parent="1" source="B1dsRPcmxnggRmvk-x9b-26" target="B1dsRPcmxnggRmvk-x9b-27">
          <mxGeometry relative="1" as="geometry">
            <Array as="points">
              <mxPoint x="650" y="890" />
              <mxPoint x="494" y="890" />
            </Array>
          </mxGeometry>
        </mxCell>
        <mxCell id="B1dsRPcmxnggRmvk-x9b-98" value="Terminado" style="edgeLabel;html=1;align=center;verticalAlign=middle;resizable=0;points=[];" vertex="1" connectable="0" parent="B1dsRPcmxnggRmvk-x9b-92">
          <mxGeometry x="-0.0678" relative="1" as="geometry">
            <mxPoint as="offset" />
          </mxGeometry>
        </mxCell>
        <mxCell id="B1dsRPcmxnggRmvk-x9b-26" value="&lt;b&gt;Reservada&lt;span style=&quot;white-space: pre;&quot;&gt;&#x9;&lt;/span&gt;&lt;br&gt;&lt;/b&gt;" style="html=1;align=left;verticalAlign=middle;rounded=1;absoluteArcSize=1;arcSize=10;dashed=0;whiteSpace=wrap;labelBackgroundColor=none;fillColor=#A8DADC;strokeColor=#457B9D;fontColor=#1D3557;" vertex="1" parent="1">
          <mxGeometry x="602.5" y="830" width="112.5" height="40" as="geometry" />
        </mxCell>
        <mxCell id="B1dsRPcmxnggRmvk-x9b-90" style="edgeStyle=orthogonalEdgeStyle;rounded=0;orthogonalLoop=1;jettySize=auto;html=1;entryX=0;entryY=0.5;entryDx=0;entryDy=0;" edge="1" parent="1" source="B1dsRPcmxnggRmvk-x9b-27" target="B1dsRPcmxnggRmvk-x9b-26">
          <mxGeometry relative="1" as="geometry" />
        </mxCell>
        <mxCell id="B1dsRPcmxnggRmvk-x9b-99" value="Iniciado" style="edgeLabel;html=1;align=center;verticalAlign=middle;resizable=0;points=[];" vertex="1" connectable="0" parent="B1dsRPcmxnggRmvk-x9b-90">
          <mxGeometry x="-0.175" y="-1" relative="1" as="geometry">
            <mxPoint as="offset" />
          </mxGeometry>
        </mxCell>
        <mxCell id="B1dsRPcmxnggRmvk-x9b-27" value="&lt;b&gt;Disponible&lt;/b&gt;&lt;br&gt;&lt;br&gt;Horario" style="html=1;align=left;verticalAlign=middle;rounded=1;absoluteArcSize=1;arcSize=10;dashed=0;whiteSpace=wrap;labelBackgroundColor=none;fillColor=#A8DADC;strokeColor=#457B9D;fontColor=#1D3557;" vertex="1" parent="1">
          <mxGeometry x="437.5" y="830" width="112.5" height="40" as="geometry" />
        </mxCell>
        <mxCell id="B1dsRPcmxnggRmvk-x9b-81" style="edgeStyle=orthogonalEdgeStyle;rounded=0;orthogonalLoop=1;jettySize=auto;html=1;entryX=0;entryY=0.5;entryDx=0;entryDy=0;" edge="1" parent="1" source="B1dsRPcmxnggRmvk-x9b-28" target="B1dsRPcmxnggRmvk-x9b-80">
          <mxGeometry relative="1" as="geometry" />
        </mxCell>
        <mxCell id="B1dsRPcmxnggRmvk-x9b-28" value="&lt;b&gt;En marcha&lt;br&gt;&lt;/b&gt;" style="html=1;align=left;verticalAlign=middle;rounded=1;absoluteArcSize=1;arcSize=10;dashed=0;whiteSpace=wrap;labelBackgroundColor=none;fillColor=#A8DADC;strokeColor=#457B9D;fontColor=#1D3557;" vertex="1" parent="1">
          <mxGeometry x="620.5" y="557.5" width="112.5" height="40" as="geometry" />
        </mxCell>
        <mxCell id="B1dsRPcmxnggRmvk-x9b-82" style="edgeStyle=orthogonalEdgeStyle;rounded=0;orthogonalLoop=1;jettySize=auto;html=1;entryX=0;entryY=0.5;entryDx=0;entryDy=0;" edge="1" parent="1" source="B1dsRPcmxnggRmvk-x9b-29" target="B1dsRPcmxnggRmvk-x9b-80">
          <mxGeometry relative="1" as="geometry" />
        </mxCell>
        <mxCell id="B1dsRPcmxnggRmvk-x9b-29" value="&lt;b&gt;Detenida&lt;br&gt;&lt;/b&gt;" style="html=1;align=left;verticalAlign=middle;rounded=1;absoluteArcSize=1;arcSize=10;dashed=0;whiteSpace=wrap;labelBackgroundColor=none;fillColor=#A8DADC;strokeColor=#457B9D;fontColor=#1D3557;" vertex="1" parent="1">
          <mxGeometry x="620.5" y="638" width="112.5" height="40" as="geometry" />
        </mxCell>
        <mxCell id="B1dsRPcmxnggRmvk-x9b-37" value="Diagrama de estados para Mantenimientos" style="text;html=1;align=center;verticalAlign=middle;resizable=0;points=[];autosize=1;strokeColor=none;fillColor=none;" vertex="1" parent="1">
          <mxGeometry x="435" y="38" width="250" height="30" as="geometry" />
        </mxCell>
        <mxCell id="B1dsRPcmxnggRmvk-x9b-40" style="edgeStyle=orthogonalEdgeStyle;rounded=0;orthogonalLoop=1;jettySize=auto;html=1;entryX=0;entryY=0.5;entryDx=0;entryDy=0;" edge="1" parent="1" source="B1dsRPcmxnggRmvk-x9b-38" target="B1dsRPcmxnggRmvk-x9b-5">
          <mxGeometry relative="1" as="geometry">
            <Array as="points">
              <mxPoint x="600" y="104" />
            </Array>
          </mxGeometry>
        </mxCell>
        <mxCell id="B1dsRPcmxnggRmvk-x9b-42" style="edgeStyle=orthogonalEdgeStyle;rounded=0;orthogonalLoop=1;jettySize=auto;html=1;entryX=0;entryY=0.5;entryDx=0;entryDy=0;" edge="1" parent="1" source="B1dsRPcmxnggRmvk-x9b-38" target="B1dsRPcmxnggRmvk-x9b-4">
          <mxGeometry relative="1" as="geometry">
            <Array as="points">
              <mxPoint x="600" y="190" />
            </Array>
          </mxGeometry>
        </mxCell>
        <mxCell id="B1dsRPcmxnggRmvk-x9b-38" value="" style="rhombus;" vertex="1" parent="1">
          <mxGeometry x="585" y="134" width="30" height="30" as="geometry" />
        </mxCell>
        <mxCell id="B1dsRPcmxnggRmvk-x9b-48" value="Diagrama de estados para Notificaci贸nes" style="text;html=1;align=center;verticalAlign=middle;resizable=0;points=[];autosize=1;strokeColor=none;fillColor=none;" vertex="1" parent="1">
          <mxGeometry x="434" y="240" width="240" height="30" as="geometry" />
        </mxCell>
        <mxCell id="B1dsRPcmxnggRmvk-x9b-51" style="edgeStyle=orthogonalEdgeStyle;rounded=0;orthogonalLoop=1;jettySize=auto;html=1;entryX=0;entryY=0.5;entryDx=0;entryDy=0;" edge="1" parent="1" source="B1dsRPcmxnggRmvk-x9b-49" target="B1dsRPcmxnggRmvk-x9b-21">
          <mxGeometry relative="1" as="geometry">
            <mxPoint x="447" y="379" as="targetPoint" />
          </mxGeometry>
        </mxCell>
        <mxCell id="B1dsRPcmxnggRmvk-x9b-52" value="Usuario&amp;nbsp;&lt;br&gt;registrado" style="edgeLabel;html=1;align=center;verticalAlign=middle;resizable=0;points=[];" vertex="1" connectable="0" parent="B1dsRPcmxnggRmvk-x9b-51">
          <mxGeometry x="0.0931" y="4" relative="1" as="geometry">
            <mxPoint as="offset" />
          </mxGeometry>
        </mxCell>
        <mxCell id="B1dsRPcmxnggRmvk-x9b-49" value="" style="ellipse;html=1;shape=startState;fillColor=#A8DADC;strokeColor=#457B9D;labelBackgroundColor=none;fontColor=#1D3557;" vertex="1" parent="1">
          <mxGeometry x="309" y="354" width="30" height="30" as="geometry" />
        </mxCell>
        <mxCell id="B1dsRPcmxnggRmvk-x9b-62" style="edgeStyle=orthogonalEdgeStyle;rounded=0;orthogonalLoop=1;jettySize=auto;html=1;exitX=0.5;exitY=0;exitDx=0;exitDy=0;entryX=0;entryY=0.5;entryDx=0;entryDy=0;" edge="1" parent="1" source="B1dsRPcmxnggRmvk-x9b-60" target="B1dsRPcmxnggRmvk-x9b-22">
          <mxGeometry relative="1" as="geometry" />
        </mxCell>
        <mxCell id="B1dsRPcmxnggRmvk-x9b-65" value="[sms]" style="edgeLabel;html=1;align=center;verticalAlign=middle;resizable=0;points=[];" vertex="1" connectable="0" parent="B1dsRPcmxnggRmvk-x9b-62">
          <mxGeometry x="0.2073" y="1" relative="1" as="geometry">
            <mxPoint as="offset" />
          </mxGeometry>
        </mxCell>
        <mxCell id="B1dsRPcmxnggRmvk-x9b-63" style="edgeStyle=orthogonalEdgeStyle;rounded=0;orthogonalLoop=1;jettySize=auto;html=1;entryX=0;entryY=0.5;entryDx=0;entryDy=0;" edge="1" parent="1" source="B1dsRPcmxnggRmvk-x9b-60" target="B1dsRPcmxnggRmvk-x9b-23">
          <mxGeometry relative="1" as="geometry" />
        </mxCell>
        <mxCell id="B1dsRPcmxnggRmvk-x9b-66" value="[sms]" style="edgeLabel;html=1;align=center;verticalAlign=middle;resizable=0;points=[];" vertex="1" connectable="0" parent="B1dsRPcmxnggRmvk-x9b-63">
          <mxGeometry x="-0.3277" y="1" relative="1" as="geometry">
            <mxPoint as="offset" />
          </mxGeometry>
        </mxCell>
        <mxCell id="B1dsRPcmxnggRmvk-x9b-64" style="edgeStyle=orthogonalEdgeStyle;rounded=0;orthogonalLoop=1;jettySize=auto;html=1;entryX=0;entryY=0.5;entryDx=0;entryDy=0;" edge="1" parent="1" source="B1dsRPcmxnggRmvk-x9b-60" target="B1dsRPcmxnggRmvk-x9b-24">
          <mxGeometry relative="1" as="geometry">
            <Array as="points">
              <mxPoint x="597" y="427" />
            </Array>
          </mxGeometry>
        </mxCell>
        <mxCell id="B1dsRPcmxnggRmvk-x9b-67" value="[sms]" style="edgeLabel;html=1;align=center;verticalAlign=middle;resizable=0;points=[];" vertex="1" connectable="0" parent="B1dsRPcmxnggRmvk-x9b-64">
          <mxGeometry x="0.2914" y="-3" relative="1" as="geometry">
            <mxPoint as="offset" />
          </mxGeometry>
        </mxCell>
        <mxCell id="B1dsRPcmxnggRmvk-x9b-60" value="" style="rhombus;" vertex="1" parent="1">
          <mxGeometry x="582" y="354" width="30" height="30" as="geometry" />
        </mxCell>
        <mxCell id="B1dsRPcmxnggRmvk-x9b-68" value="" style="shape=sumEllipse;perimeter=ellipsePerimeter;html=1;backgroundOutline=1;" vertex="1" parent="1">
          <mxGeometry x="852" y="129" width="30" height="30" as="geometry" />
        </mxCell>
        <mxCell id="B1dsRPcmxnggRmvk-x9b-71" value="Diagrama de estados para Moto" style="text;html=1;align=center;verticalAlign=middle;resizable=0;points=[];autosize=1;strokeColor=none;fillColor=none;" vertex="1" parent="1">
          <mxGeometry x="437" y="498" width="190" height="30" as="geometry" />
        </mxCell>
        <mxCell id="B1dsRPcmxnggRmvk-x9b-73" style="edgeStyle=orthogonalEdgeStyle;rounded=0;orthogonalLoop=1;jettySize=auto;html=1;entryX=0;entryY=0.5;entryDx=0;entryDy=0;" edge="1" parent="1" source="B1dsRPcmxnggRmvk-x9b-72" target="B1dsRPcmxnggRmvk-x9b-2">
          <mxGeometry relative="1" as="geometry" />
        </mxCell>
        <mxCell id="B1dsRPcmxnggRmvk-x9b-74" value="Usuario&lt;br&gt;nuevo" style="edgeLabel;html=1;align=center;verticalAlign=middle;resizable=0;points=[];" vertex="1" connectable="0" parent="B1dsRPcmxnggRmvk-x9b-73">
          <mxGeometry x="-0.2381" relative="1" as="geometry">
            <mxPoint as="offset" />
          </mxGeometry>
        </mxCell>
        <mxCell id="B1dsRPcmxnggRmvk-x9b-72" value="" style="ellipse;html=1;shape=startState;fillColor=#A8DADC;strokeColor=#457B9D;labelBackgroundColor=none;fontColor=#1D3557;" vertex="1" parent="1">
          <mxGeometry x="287" y="597.5" width="30" height="30" as="geometry" />
        </mxCell>
        <mxCell id="B1dsRPcmxnggRmvk-x9b-77" style="edgeStyle=orthogonalEdgeStyle;rounded=0;orthogonalLoop=1;jettySize=auto;html=1;entryX=0;entryY=0.5;entryDx=0;entryDy=0;" edge="1" parent="1" source="B1dsRPcmxnggRmvk-x9b-75" target="B1dsRPcmxnggRmvk-x9b-28">
          <mxGeometry relative="1" as="geometry">
            <Array as="points">
              <mxPoint x="559" y="578" />
              <mxPoint x="597" y="578" />
            </Array>
          </mxGeometry>
        </mxCell>
        <mxCell id="B1dsRPcmxnggRmvk-x9b-89" value="Calcular&amp;nbsp;&lt;br&gt;ubicaci贸n" style="edgeLabel;html=1;align=center;verticalAlign=middle;resizable=0;points=[];" vertex="1" connectable="0" parent="B1dsRPcmxnggRmvk-x9b-77">
          <mxGeometry x="-0.1264" y="3" relative="1" as="geometry">
            <mxPoint as="offset" />
          </mxGeometry>
        </mxCell>
        <mxCell id="B1dsRPcmxnggRmvk-x9b-78" style="edgeStyle=orthogonalEdgeStyle;rounded=0;orthogonalLoop=1;jettySize=auto;html=1;entryX=0;entryY=0.5;entryDx=0;entryDy=0;" edge="1" parent="1">
          <mxGeometry relative="1" as="geometry">
            <mxPoint x="559" y="625" as="sourcePoint" />
            <mxPoint x="620.5" y="657" as="targetPoint" />
            <Array as="points">
              <mxPoint x="559" y="658" />
              <mxPoint x="610" y="658" />
              <mxPoint x="610" y="657" />
            </Array>
          </mxGeometry>
        </mxCell>
        <mxCell id="B1dsRPcmxnggRmvk-x9b-88" value="Ubicaci贸n&lt;br&gt;enviada" style="edgeLabel;html=1;align=center;verticalAlign=middle;resizable=0;points=[];" vertex="1" connectable="0" parent="B1dsRPcmxnggRmvk-x9b-78">
          <mxGeometry x="-0.0604" relative="1" as="geometry">
            <mxPoint y="-5" as="offset" />
          </mxGeometry>
        </mxCell>
        <mxCell id="B1dsRPcmxnggRmvk-x9b-75" value="" style="rhombus;" vertex="1" parent="1">
          <mxGeometry x="544" y="597" width="30" height="30" as="geometry" />
        </mxCell>
        <mxCell id="B1dsRPcmxnggRmvk-x9b-79" value="Diagrama de estados para Agendar moto" style="text;html=1;align=center;verticalAlign=middle;resizable=0;points=[];autosize=1;strokeColor=none;fillColor=none;" vertex="1" parent="1">
          <mxGeometry x="436" y="708" width="240" height="30" as="geometry" />
        </mxCell>
        <mxCell id="B1dsRPcmxnggRmvk-x9b-80" value="" style="ellipse;html=1;shape=endState;fillColor=strokeColor;" vertex="1" parent="1">
          <mxGeometry x="774" y="590" width="30" height="30" as="geometry" />
        </mxCell>
        <mxCell id="B1dsRPcmxnggRmvk-x9b-84" style="edgeStyle=orthogonalEdgeStyle;rounded=0;orthogonalLoop=1;jettySize=auto;html=1;entryX=0;entryY=0.5;entryDx=0;entryDy=0;" edge="1" parent="1" source="B1dsRPcmxnggRmvk-x9b-83" target="B1dsRPcmxnggRmvk-x9b-25">
          <mxGeometry relative="1" as="geometry" />
        </mxCell>
        <mxCell id="B1dsRPcmxnggRmvk-x9b-85" value="Mtto&amp;nbsp;&lt;br&gt;pendiente" style="edgeLabel;html=1;align=center;verticalAlign=middle;resizable=0;points=[];" vertex="1" connectable="0" parent="B1dsRPcmxnggRmvk-x9b-84">
          <mxGeometry x="-0.2" y="2" relative="1" as="geometry">
            <mxPoint as="offset" />
          </mxGeometry>
        </mxCell>
        <mxCell id="B1dsRPcmxnggRmvk-x9b-83" value="" style="ellipse;html=1;shape=startState;fillColor=#A8DADC;strokeColor=#457B9D;labelBackgroundColor=none;fontColor=#1D3557;" vertex="1" parent="1">
          <mxGeometry x="324.5" y="755" width="30" height="30" as="geometry" />
        </mxCell>
        <mxCell id="B1dsRPcmxnggRmvk-x9b-91" style="edgeStyle=orthogonalEdgeStyle;rounded=0;orthogonalLoop=1;jettySize=auto;html=1;entryX=0.75;entryY=1;entryDx=0;entryDy=0;" edge="1" parent="1" source="B1dsRPcmxnggRmvk-x9b-26" target="B1dsRPcmxnggRmvk-x9b-26">
          <mxGeometry relative="1" as="geometry" />
        </mxCell>
        <mxCell id="B1dsRPcmxnggRmvk-x9b-97" value="Mtto&lt;br&gt;en proceso" style="edgeLabel;html=1;align=center;verticalAlign=middle;resizable=0;points=[];" vertex="1" connectable="0" parent="B1dsRPcmxnggRmvk-x9b-91">
          <mxGeometry x="-0.3358" y="2" relative="1" as="geometry">
            <mxPoint as="offset" />
          </mxGeometry>
        </mxCell>
        <mxCell id="B1dsRPcmxnggRmvk-x9b-95" style="edgeStyle=orthogonalEdgeStyle;rounded=0;orthogonalLoop=1;jettySize=auto;html=1;entryX=0.308;entryY=-0.043;entryDx=0;entryDy=0;entryPerimeter=0;" edge="1" parent="1" source="B1dsRPcmxnggRmvk-x9b-25" target="B1dsRPcmxnggRmvk-x9b-26">
          <mxGeometry relative="1" as="geometry" />
        </mxCell>
        <mxCell id="B1dsRPcmxnggRmvk-x9b-96" value="Ocupada" style="edgeLabel;html=1;align=center;verticalAlign=middle;resizable=0;points=[];" vertex="1" connectable="0" parent="B1dsRPcmxnggRmvk-x9b-95">
          <mxGeometry x="0.3017" y="-1" relative="1" as="geometry">
            <mxPoint as="offset" />
          </mxGeometry>
        </mxCell>
      </root>
    </mxGraphModel>
  </diagram>
</mxfile>
